<svg xmlns="http://www.w3.org/2000/svg" viewBox="0 0 32 32">
  <circle cx="16" cy="16" r="15" fill="#FF8C00" />
  <path fill="none" stroke="#231F20" stroke-width="2" stroke-linecap="round" stroke-linejoin="round" d="M16 1c8.284 0 15 6.716 15 15 0 8.284-6.716 15-15 15-8.284 0-15-6.716-15-15C1 7.716 7.716 1 16 1z"/>
  <path fill="none" stroke="#231F20" stroke-width="2" stroke-linecap="round" stroke-linejoin="round" d="M1 16h30M16 1v30M6.5 1c3 6 4.5 11 4.5 15s-1.5 9-4.5 15M25.5 1c-3 6-4.5 11-4.5 15s1.5 9 4.5 15"/>
  <path fill="none" stroke="#212121" stroke-width="2" d="M16 1C7.7 1 1 7.7 1 16s6.7 15 15 15 15-6.7 15-15S24.3 1 16 1zm0 0"/>
</svg>
